<svg width="257" height="132" viewBox="0 0 257 132" fill="none" xmlns="http://www.w3.org/2000/svg">
<path d="M170.478 84.1848H146.871C144.577 84.1848 142.69 82.3074 142.69 79.9606V33.0252C142.69 30.7078 144.548 28.801 146.871 28.801H170.478C172.771 28.801 174.659 30.6784 174.659 33.0252V79.9606C174.659 82.3074 172.771 84.1848 170.478 84.1848Z" fill="#EDEDED"/>
<path d="M171.755 58.1941C171.755 61.5676 171.174 64.2957 170.477 64.2957C169.78 64.2957 169.2 61.5676 169.2 58.1941C169.2 54.8207 169.78 52.0925 170.477 52.0925C171.174 52.0925 171.755 54.8207 171.755 58.1941Z" fill="#9D9D9C"/>
<path opacity="0.1" d="M158.689 28.8303H146.9C144.606 28.8303 142.719 30.7077 142.719 33.0545V79.9899C142.719 82.3074 144.577 84.2141 146.9 84.2141H158.689V28.8303Z" fill="#1D1D1B"/>
<path d="M241.007 45.8735H223.265L226.721 28.2434H237.551L241.007 45.8735Z" fill="#F6D864"/>
<path d="M232.993 45.8738H231.309V77.6432H232.993V45.8738Z" fill="#936037"/>
<path d="M198.904 53.647H172.394V77.76H198.904V53.647Z" fill="#CAB498"/>
<path d="M225.385 53.647H198.875V77.76H225.385V53.647Z" fill="#BA9F7D"/>
<path d="M147.51 10.3496H101.168V90.6679H147.51V10.3496Z" fill="#333333" fill-opacity="0.27"/>
<path d="M147.51 8.73584H101.051V13.2534H147.51V8.73584Z" fill="#333333" fill-opacity="0.27"/>
<path d="M123.7 15.219H103.084V85.8568H123.7V15.219Z" fill="#333333" fill-opacity="0.27"/>
<path d="M122.451 79.8723C122.451 82.4244 120.39 84.5072 117.864 84.5072H109.153C109.153 81.9551 107.091 79.8723 104.565 79.8723V20.9684C107.091 20.9684 109.153 18.8856 109.153 16.3335H117.864C117.864 18.8856 119.925 20.9684 122.451 20.9684V79.8723Z" fill="white"/>
<path d="M145.593 15.219H124.978V85.8568H145.593V15.219Z" fill="#333333" fill-opacity="0.27"/>
<path d="M144.345 79.8723C144.345 82.4244 142.283 84.5072 139.757 84.5072H131.046C131.046 81.9551 128.985 79.8723 126.458 79.8723V20.9684C128.985 20.9684 131.046 18.8856 131.046 16.3335H139.757C139.757 18.8856 141.819 20.9684 144.345 20.9684V79.8723Z" fill="white"/>
<path d="M119.519 48.7192C120.289 48.7192 120.913 48.01 120.913 47.1351C120.913 46.2602 120.289 45.551 119.519 45.551C118.749 45.551 118.125 46.2602 118.125 47.1351C118.125 48.01 118.749 48.7192 119.519 48.7192Z" fill="#333333" fill-opacity="0.27"/>
<path d="M131.017 47.1351C131.017 48.0151 130.407 48.7192 129.623 48.7192C128.868 48.7192 128.23 48.0151 128.23 47.1351C128.23 46.2551 128.839 45.551 129.623 45.551C130.378 45.551 131.017 46.2551 131.017 47.1351Z" fill="#333333" fill-opacity="0.27"/>
<path opacity="0.1" d="M124.28 13.2827V8.73584H101.051V13.2827H101.168V90.6382H124.397V13.2827H124.28Z" fill="#1D1D1B"/>
<path d="M85.6334 8.09066L72.7994 8.03199C50.7317 8.00265 43.5017 8.00265 38.5365 20.0885H39.9302H44.1115C45.4762 20.0885 46.6086 21.2032 46.6086 22.6113V53.4127C46.6086 56.6102 44.0534 59.1916 40.8884 59.1916H26.6897H26.0218C25.6443 59.837 25.2088 60.4237 24.6861 60.981L10.4293 76.2937C9.03556 77.7898 8.25158 79.7552 8.25158 81.8086L8.22255 88.4969V91.4304V92.7798V95.7132V97.092L8.19351 100.025L8.13544 107.212C8.13544 108.18 8.33869 109.09 8.7452 109.911C9.47111 111.437 10.8068 112.669 12.4909 113.226L19.8952 115.602L21.2308 116.013L22.6826 116.482L66.092 116.658L92.3989 116.775V82.982V74.1816V14.8963C92.3408 11.1415 89.3501 8.09066 85.6334 8.09066ZM83.8332 54.146C83.8332 57.2849 81.5393 59.837 78.7228 59.837H55.5227C52.7062 59.837 50.4123 57.2849 50.4123 54.146V25.1047C50.4123 21.9659 52.7062 19.4138 55.5227 19.4138H78.7228C81.5393 19.4138 83.8332 21.9659 83.8332 25.1047V54.146Z" fill="#8B4795"/>
<path d="M96.5219 70.3093V116.775L192.923 117.215L236.535 117.421L237.784 117.039L241.152 116.042C244.404 115.074 246.698 112.229 246.988 108.884C247.017 108.65 247.017 108.415 247.017 108.18L247.133 70.3093H96.5219Z" fill="#8B4795"/>
<path d="M5.55079 77.8191C5.52176 81.8966 5.78308 85.2114 6.10248 85.2114C6.45092 85.2114 6.71224 81.8966 6.74128 77.8191C6.77032 73.7416 6.50899 70.4268 6.16055 70.4268C5.84115 70.4561 5.57983 73.7416 5.55079 77.8191Z" fill="#3C3C3B"/>
<path d="M42.8626 77.7897C42.8335 83.0406 27.6766 87.4115 16.6428 87.3528C11.8808 87.3235 8.86103 86.5901 7.67054 85.27C6.07354 83.5393 7.17692 80.8112 7.20596 77.819C7.20596 74.8856 6.18968 72.0694 7.75765 70.3387C8.94814 68.9893 11.9389 68.3733 16.7589 68.4026C27.7637 68.4319 42.8916 72.5681 42.8626 77.7897Z" fill="#6C3874"/>
<path d="M6.01547 70.3385C2.24074 70.1332 2.24074 85.2405 5.9574 85.2698C6.33487 82.4537 6.3639 73.1253 6.01547 70.3385Z" fill="#FFE697"/>
<path d="M7.93172 70.3386H7.23485H5.754C5.8411 70.3386 5.92821 70.6026 5.98629 71.072C6.33472 73.5948 6.30569 82.0138 5.92821 84.5366C5.87014 85.0059 5.78303 85.27 5.69592 85.27H7.17678H7.87365C8.3963 80.0484 8.45438 75.0615 7.93172 70.3386Z" fill="#3C3C3B"/>
<path d="M230.437 92.398C230.466 95.7715 235.257 98.5876 242.604 98.5583C245.769 98.5289 249.05 98.0596 249.834 97.2089C250.879 96.0942 250.821 88.6725 249.776 87.5578C248.963 86.6777 245.74 86.2964 242.516 86.2964C235.199 86.3551 230.408 88.9952 230.437 92.398Z" fill="#6C3874"/>
<path d="M12.9261 102.9H7.40918C6.85749 101.727 5.69604 100.906 4.33133 100.906C-0.779061 100.906 -0.488698 112.874 4.33133 112.874C5.69604 112.874 6.85749 112.053 7.40918 110.879H12.9261C15.1038 110.879 16.875 109.09 16.875 106.89C16.875 104.69 15.1038 102.9 12.9261 102.9Z" fill="#D6D6D6"/>
<path d="M252.708 102.313C251.228 102.313 249.95 103.135 249.369 104.308H243.068C240.891 104.308 239.119 106.098 239.119 108.298C239.119 110.498 240.891 112.287 243.068 112.287H249.369C249.95 113.461 251.228 114.282 252.708 114.282C257.935 114.282 258.254 102.313 252.708 102.313Z" fill="#D6D6D6"/>
<path d="M46.6084 53.4125V22.6112C46.6084 21.2324 45.5051 20.0884 44.1113 20.0884H39.9301C34.297 32.7023 29.9125 45.7562 26.6895 59.1915H40.8592C44.0532 59.1915 46.6084 56.61 46.6084 53.4125Z" fill="#FEE885"/>
<path d="M78.7516 19.4138H55.5516C52.735 19.4138 50.4412 21.9659 50.4412 25.1047V54.146C50.4412 57.2848 52.735 59.8369 55.5516 59.8369H78.7516C81.5681 59.8369 83.862 57.2848 83.862 54.146V25.1047C83.833 21.9659 81.5681 19.4138 78.7516 19.4138Z" fill="#FEE885"/>
<path d="M250.618 87.2061C253.231 87.0594 253.231 97.5319 250.676 97.5612C250.386 95.6252 250.357 89.1422 250.618 87.2061Z" fill="#FFE697"/>
<path d="M249.282 87.2083H249.747H250.763C250.705 87.2083 250.647 87.4136 250.618 87.7069C250.385 89.467 250.414 95.3046 250.676 97.0354C250.734 97.358 250.792 97.5341 250.85 97.5341H249.834H249.369C248.963 93.9259 248.905 90.4644 249.282 87.2083Z" fill="#3C3C3B"/>
<path d="M17.2527 89.993C17.2527 90.8144 16.5849 91.4598 15.8009 91.4598H8.19336V88.5263H15.8009C16.6139 88.497 17.2527 89.1717 17.2527 89.993Z" fill="#3C3C3B"/>
<path d="M17.2526 94.3046C17.2526 95.1259 16.5847 95.7713 15.8007 95.7713H8.16418V92.8378H15.7717C16.6138 92.8085 17.2526 93.4832 17.2526 94.3046Z" fill="#3C3C3B"/>
<path d="M17.2526 98.5878C17.2526 99.4092 16.5847 100.055 15.8007 100.055H8.16418L8.19322 97.1211H15.8298C16.6138 97.1211 17.2526 97.7958 17.2526 98.5878Z" fill="#3C3C3B"/>
<path d="M56.7713 111.29C56.7713 118.565 50.935 124.49 43.7049 124.49C36.4749 124.49 30.6386 118.594 30.6386 111.29C30.6386 103.985 36.4749 98.0891 43.7049 98.0891C50.935 98.0891 56.7713 104.015 56.7713 111.29Z" fill="#9B9B9B"/>
<path d="M43.734 90.6089C32.4098 90.6089 23.2343 99.8493 23.2343 111.29C23.2343 122.73 32.3808 132 43.705 132C55.0001 132 64.2046 122.76 64.2046 111.319C64.2046 99.8786 55.0582 90.6089 43.734 90.6089ZM43.705 124.05C36.7362 124.05 31.1032 118.33 31.1032 111.29C31.1032 104.249 36.7653 98.5586 43.734 98.5586C50.7027 98.5586 56.3358 104.279 56.3358 111.319C56.3067 118.359 50.6737 124.05 43.705 124.05Z" fill="#3C3C3B"/>
<path d="M51.6316 111.289C51.6316 115.69 48.0892 119.268 43.7337 119.268C39.3783 119.268 35.8358 115.69 35.8358 111.289C35.8358 106.889 39.3783 103.31 43.7337 103.31C48.0892 103.31 51.6316 106.889 51.6316 111.289Z" fill="#D6D6D6"/>
<path d="M213.48 124.49C220.697 124.49 226.547 118.58 226.547 111.29C226.547 103.999 220.697 98.0891 213.48 98.0891C206.264 98.0891 200.414 103.999 200.414 111.29C200.414 118.58 206.264 124.49 213.48 124.49Z" fill="#9B9B9B"/>
<path d="M213.48 90.6089C202.156 90.6089 192.981 99.8493 192.981 111.29C192.981 122.73 202.127 132 213.451 132C224.776 132 233.951 122.76 233.951 111.319C233.951 99.8786 224.805 90.6089 213.48 90.6089ZM213.451 124.05C206.483 124.05 200.85 118.33 200.85 111.29C200.85 104.249 206.512 98.5586 213.48 98.5586C220.449 98.5586 226.082 104.279 226.082 111.319C226.082 118.359 220.42 124.05 213.451 124.05Z" fill="#3C3C3B"/>
<path d="M221.378 111.289C221.378 115.69 217.836 119.268 213.48 119.268C209.125 119.268 205.582 115.69 205.582 111.289C205.582 106.889 209.125 103.31 213.48 103.31C217.836 103.31 221.378 106.889 221.378 111.289Z" fill="#D6D6D6"/>
<path d="M96.522 77.8191H92.3407V111.29H96.522V77.8191Z" fill="#3C3C3B"/>
<path d="M247.104 70.3096H96.522V74.8858H247.104V70.3096Z" fill="#6C3874"/>
<path d="M188.364 36.1349V31.4707L184.618 2.98674C184.444 1.66668 183.486 0.551967 182.208 0.25862C179.769 -0.269403 177.04 0.0239431 174.949 1.02132C173.381 1.75469 172.539 3.48543 172.771 5.18684L176.488 31.4707V52.2396H186.418H188.364H211.825V36.1349H188.364Z" fill="#24B898"/>
<path d="M181.192 52.2393H178.027V53.6473H181.192V52.2393Z" fill="#3C3C3B"/>
<path d="M210.373 52.2393H207.325V53.6473H210.373V52.2393Z" fill="#3C3C3B"/>
<path d="M211.738 36.1343H176.488C174.804 33.0835 174.136 29.622 175.704 25.8672H209.822C211.099 25.8672 212.261 26.6592 212.754 27.8619C213.974 30.9127 213.48 33.6409 211.738 36.1343Z" fill="#00A683"/>
<path d="M166.296 11.7283H147.51V28.8304H166.296V11.7283Z" fill="#F6D864"/>
<path opacity="0.5" d="M163.596 18.7685V13.8696H158.486V18.7392C158.486 20.0299 159.444 21.0273 160.634 21.2033V24.6061H158.921V25.3981H163.131V24.6354H161.418V21.2326C162.638 21.0566 163.596 20.0299 163.596 18.7685Z" fill="#3C3C3B"/>
<path opacity="0.1" d="M156.279 11.7283H147.51V28.5957H156.279V11.7283Z" fill="#1D1D1B"/>
<path opacity="0.1" d="M193.068 25.8678H187.609L184.589 2.98674C184.415 1.66668 183.457 0.551967 182.179 0.25862C179.74 -0.269403 177.011 0.0239431 174.92 1.02132C173.352 1.75469 172.51 3.48543 172.742 5.18684L175.675 25.8678C174.136 29.6226 174.775 33.0547 176.459 36.1056V52.2103H177.998V53.6183H181.163V52.2396H186.418H188.364H193.068V25.8678Z" fill="#1D1D1B"/>
<path opacity="0.1" d="M226.721 28.2434L223.265 45.8735H231.308V77.6429H232.151V28.2434H226.721Z" fill="#1D1D1B"/>
<path opacity="0.1" d="M136.592 116.981V70.3094H96.5218V77.8191H92.3405V74.1523V14.8963C92.3405 11.1415 89.3498 8.09066 85.6331 8.09066L72.7991 8.03199C50.7315 8.00265 43.5014 8.00265 38.5362 20.0885H39.9299C34.2969 32.7024 29.9124 45.7563 26.6894 59.1916H26.0215C25.6441 59.837 25.2085 60.4237 24.6859 60.981L17.7462 68.432C17.3977 68.432 17.0493 68.4027 16.7299 68.4027C11.8808 68.3733 8.91914 68.9894 7.72865 70.3388H7.26406H5.78321C5.78321 70.3388 5.81225 70.3681 5.81225 70.3974C2.32789 70.7788 2.32789 84.6541 5.75418 85.2408L5.72514 85.2994H5.95743H7.17696H7.64154C7.78672 85.4754 7.98997 85.6221 8.19323 85.7688V88.5262V91.4597V92.8091V95.7426V97.1213L8.16419 100.055V100.084V102.9H7.40925C6.85756 101.727 5.6961 100.905 4.3314 100.905C-0.779 100.905 -0.488636 112.874 4.3314 112.874C5.6961 112.874 6.85756 112.053 7.40925 110.879H9.29661C10.0516 111.965 11.1549 112.786 12.4616 113.226L19.8658 115.602L21.2015 116.013L22.6533 116.482H23.9019C26.1667 125.4 34.1517 132 43.7047 132C53.1705 132 61.1555 125.488 63.4784 116.658H66.0626L92.3696 116.775V111.29H96.5508V116.805L136.592 116.981Z" fill="#1D1D1B"/>
</svg>
