<svg width="220" height="110" viewBox="0 0 220 110" fill="none" xmlns="http://www.w3.org/2000/svg">
<path d="M126.927 68.7834H91.9611V77.3126H126.927V68.7834Z" fill="#C7FFBD"/>
<path d="M126.394 69.6436H92.4948V76.4316H126.394V69.6436Z" fill="#61FF45"/>
<path d="M100.519 68.7834H100.208V77.3126H100.519V68.7834Z" fill="#1A1A1A"/>
<path d="M119.103 68.7834H118.791V77.3126H119.103V68.7834Z" fill="#1A1A1A"/>
<path d="M120.103 68.7834H119.792V77.3126H120.103V68.7834Z" fill="#1A1A1A"/>
<path d="M99.5859 68.7834H99.2747V77.3126H99.5859V68.7834Z" fill="#1A1A1A"/>
<path d="M112.99 71.34C112.99 72.0893 111.367 72.6844 109.366 72.6844C107.366 72.6844 105.743 72.0893 105.743 71.34C105.743 70.5907 107.366 69.9956 109.366 69.9956C111.367 69.9956 112.99 70.5907 112.99 71.34Z" fill="#DEFFD9"/>
<path d="M182.322 71.6489H173.719V106.316H182.322V71.6489Z" fill="#C7FFBD"/>
<path d="M181.477 72.1777H174.631V105.787H181.477V72.1777Z" fill="#61FF45"/>
<path d="M180.766 79.495C180.766 80.2443 179.654 80.8394 178.298 80.8394C176.942 80.8394 175.831 80.2443 175.831 79.495C175.831 78.7457 176.942 78.1506 178.298 78.1506C179.654 78.1506 180.766 78.7677 180.766 79.495Z" fill="#DEFFD9"/>
<path d="M182.322 79.8257H173.719V80.1342H182.322V79.8257Z" fill="#1A1A1A"/>
<path d="M182.322 98.2507H173.719V98.5593H182.322V98.2507Z" fill="#1A1A1A"/>
<path d="M182.322 99.2639H173.719V99.5725H182.322V99.2639Z" fill="#1A1A1A"/>
<path d="M182.322 78.8997H173.719V79.2082H182.322V78.8997Z" fill="#1A1A1A"/>
<path d="M33.5357 73.7091L27.4528 79.74L52.1773 104.253L58.2602 98.2224L33.5357 73.7091Z" fill="#C7FFBD"/>
<path d="M33.3072 74.6802L28.4661 79.48L52.4361 103.245L57.2773 98.4455L33.3072 74.6802Z" fill="#61FF45"/>
<path d="M38.5673 80.839C38.5673 81.5883 37.8115 82.1834 36.9001 82.1834C35.9888 82.1834 35.233 81.5883 35.233 80.839C35.233 80.0897 35.9888 79.4946 36.9001 79.4946C37.8338 79.4946 38.5673 80.0897 38.5673 80.839Z" fill="#DEFFD9"/>
<path d="M39.3653 79.5119L33.2789 85.5403L33.4989 85.7586L39.5852 79.7302L39.3653 79.5119Z" fill="#1A1A1A"/>
<path d="M52.5027 92.539L46.4163 98.5674L46.6363 98.7857L52.7226 92.7573L52.5027 92.539Z" fill="#1A1A1A"/>
<path d="M53.2196 93.234L47.1333 99.2615L47.3532 99.4798L53.4396 93.4523L53.2196 93.234Z" fill="#1A1A1A"/>
<path d="M38.7032 78.8387L32.6203 84.8696L32.8404 85.0878L38.9233 79.0569L38.7032 78.8387Z" fill="#1A1A1A"/>
<path d="M15.5824 68.7834H11.5812V109.181H15.5824V68.7834Z" fill="#BF7B22"/>
<path d="M208.419 68.7834H204.417V109.181H208.419V68.7834Z" fill="#BF7B22"/>
<path d="M220 68.7834H208.419V109.181H220V68.7834Z" fill="#8B4795"/>
<path d="M11.5813 68.7834H0V109.181H11.5813V68.7834Z" fill="#8B4795"/>
<path d="M11.5812 68.7834V109.181H208.419V68.7834H126.727C126.727 68.7834 129.595 81.0812 110.011 81.0812C90.4273 81.0812 92.0944 68.7834 92.0944 68.7834H11.5812ZM42.6128 102.988C34.8104 102.988 28.4974 96.729 28.4974 88.9932C28.4974 81.2575 34.8104 74.9985 42.6128 74.9985C50.4151 74.9985 56.7282 81.2575 56.7282 88.9932C56.7282 96.729 50.4151 102.988 42.6128 102.988ZM178.032 102.988C170.229 102.988 163.916 96.729 163.916 88.9932C163.916 81.2575 170.229 74.9985 178.032 74.9985C185.834 74.9985 192.147 81.2575 192.147 88.9932C192.147 96.729 185.834 102.988 178.032 102.988Z" fill="#F2A905"/>
<path d="M42.8574 105.215C33.8547 105.215 26.5192 97.9416 26.5192 89.0158C26.5192 80.09 33.8547 72.8171 42.8574 72.8171C51.8602 72.8171 59.1957 80.09 59.1957 89.0158C59.2179 97.9416 51.8824 105.215 42.8574 105.215ZM42.8574 77.2029C36.2999 77.2029 30.965 82.4923 30.965 88.9938C30.965 95.4953 36.2999 100.785 42.8574 100.785C49.415 100.785 54.7499 95.4953 54.7499 88.9938C54.7722 82.4923 49.415 77.2029 42.8574 77.2029Z" fill="#8B4795"/>
<path d="M178.032 105.215C169.029 105.215 161.693 97.9416 161.693 89.0158C161.693 80.09 169.029 72.8171 178.032 72.8171C187.034 72.8171 194.37 80.09 194.37 89.0158C194.37 97.9416 187.034 105.215 178.032 105.215ZM178.032 77.2029C171.474 77.2029 166.139 82.4923 166.139 88.9938C166.139 95.4953 171.474 100.785 178.032 100.785C184.589 100.785 189.924 95.4953 189.924 88.9938C189.924 82.4923 184.589 77.2029 178.032 77.2029Z" fill="#8B4795"/>
<path d="M110.056 84.0788C101.364 84.0788 95.1178 81.9631 91.45 77.8197C87.5377 73.3899 88.1824 68.6074 88.2046 68.387H92.6059C92.6059 68.387 92.2503 72.0896 94.851 74.9767C97.6074 78.0622 102.876 79.671 110.056 79.671C117.147 79.671 122.193 78.1062 124.616 75.1089C126.927 72.2659 126.261 68.4972 126.238 68.365H130.573C130.617 68.5854 131.773 73.2797 128.128 77.7977C124.793 81.9851 118.703 84.0788 110.056 84.0788Z" fill="#8B4795"/>
<path d="M132.151 71.2085H206.418V106.78L203.662 73.2361L132.151 71.2085Z" fill="white"/>
<path d="M206.418 107.33L13.582 105.942V108.344L206.418 107.33Z" fill="#9E6E23"/>
<path d="M84.4701 70.8115H12.7151L85.6483 71.8474L84.4701 70.8115Z" fill="white"/>
<path d="M154.002 74.9767C154.002 76.0787 153.091 76.9823 151.979 76.9823C150.868 76.9823 149.956 76.0787 149.956 74.9767C149.956 73.8748 150.868 72.9712 151.979 72.9712C153.091 72.9712 154.002 73.8748 154.002 74.9767Z" fill="white"/>
<path d="M151.935 78.5249C151.935 79.0538 151.49 79.4946 150.957 79.4946C150.423 79.4946 149.979 79.0538 149.979 78.5249C149.979 77.996 150.423 77.5552 150.957 77.5552C151.49 77.5552 151.935 77.996 151.935 78.5249Z" fill="white"/>
<path d="M163.761 20.2317H61.3965V2.95312H167.651L163.761 20.2317Z" fill="#851818"/>
<path d="M191.569 19.0417H75.0229V3.57031H181.211L191.569 19.0417Z" fill="#919191"/>
<path d="M191.569 19.0415H75.0229V16.8596H190.102L191.569 19.0415Z" fill="#BABABA"/>
<path d="M158.737 19.0417H157.848L165.695 3.57031H166.584L158.737 19.0417Z" fill="#707070"/>
<path d="M171.941 19.0417H171.052L178.899 3.57031H179.81L171.941 19.0417Z" fill="#707070"/>
<path d="M145.533 19.0417H144.622L152.491 3.57031H153.38L145.533 19.0417Z" fill="#707070"/>
<path d="M132.329 19.0417H131.418L139.287 3.57031H140.176L132.329 19.0417Z" fill="#707070"/>
<path d="M119.103 19.0417H118.214L126.061 3.57031H126.972L119.103 19.0417Z" fill="#707070"/>
<path d="M105.899 19.0417H105.01L112.857 3.57031H113.768L105.899 19.0417Z" fill="#707070"/>
<path d="M92.695 19.0417H91.8058L99.6527 3.57031H100.542L92.695 19.0417Z" fill="#707070"/>
<path d="M79.4909 19.0417H78.5795L86.4486 3.57031H87.3377L79.4909 19.0417Z" fill="#707070"/>
<path opacity="0.3" d="M169.296 3.57031H75.0229V6.74393H169.296V3.57031Z" fill="black"/>
<path d="M32.9878 0.264468L20.1617 3.85683C19.2059 4.1213 18.5612 5.00286 18.5612 5.97258V15.9783C18.5612 16.9701 19.2281 17.8296 20.1839 18.0941L32.9878 21.6864C33.6102 21.8627 34.2771 21.9509 34.9217 21.9509H56.5727V0H34.9217C34.2771 0 33.6102 0.0881562 32.9878 0.264468Z" fill="#1F1F1F"/>
<path d="M171.185 0H56.5948V21.9729H166.628C167.94 21.9729 169.073 21.1134 169.429 19.8792L174.008 3.65848C174.497 1.8072 173.119 0 171.185 0ZM165.561 6.61171L162.827 16.2648C162.627 17.0141 161.938 17.521 161.16 17.521H64.086V4.45189H163.894C165.028 4.45189 165.872 5.5318 165.561 6.61171Z" fill="#8B4795"/>
<path d="M56.5728 5.73022H48.7037V17.9619H56.5728V5.73022Z" fill="#050505"/>
<path d="M77.8682 5.06934H50.0375V16.8823H77.8682V5.06934Z" fill="#454545"/>
<path d="M76.0898 6.19336H52.7049V15.7363H76.0898V6.19336Z" fill="#0D0D0D"/>
<path d="M85.6482 6.19336H77.868V7.29531H85.6482V6.19336Z" fill="#1F1F1F"/>
<path d="M85.6482 14.6338H77.868V15.7357H85.6482V14.6338Z" fill="#1F1F1F"/>
<path d="M87.9377 4.4519H81.0245V17.5431H87.9377V4.4519Z" fill="#454545"/>
<path d="M87.3822 5.46582H81.5582V16.5074H87.3822V5.46582Z" fill="#0D0D0D"/>
<path d="M33.9438 19.7247L21.3845 16.463C20.4953 16.2426 19.8951 15.4492 19.8951 14.5456V7.27268C19.8951 6.36908 20.5176 5.57567 21.3845 5.35528L33.9438 2.09351V19.7247Z" fill="#0D0D0D"/>
<path d="M34.744 1.0354H33.9437V21.2011H34.744V1.0354Z" fill="#696969"/>
<path d="M73.6001 54.7672H15.1379C13.4041 54.7672 12.0037 53.3788 12.0037 51.6597V40.3978C12.0037 38.6787 13.4041 37.2903 15.1379 37.2903H73.6001C75.3339 37.2903 76.7344 38.6787 76.7344 40.3978V51.6597C76.7344 53.3788 75.3339 54.7672 73.6001 54.7672Z" fill="#8B4795"/>
<path d="M70.977 41.5434H18.2944C17.6053 41.5434 17.0496 40.9924 17.0496 40.3092V40.2872C17.0496 39.604 17.6053 39.053 18.2944 39.053H70.977C71.6661 39.053 72.2218 39.604 72.2218 40.2872V40.3092C72.2218 40.9924 71.6661 41.5434 70.977 41.5434Z" fill="#DBAE30"/>
<path d="M70.977 53.4889H18.2944C17.6053 53.4889 17.0496 52.938 17.0496 52.2548V52.2327C17.0496 51.5495 17.6053 50.9985 18.2944 50.9985H70.977C71.6661 50.9985 72.2218 51.5495 72.2218 52.2327V52.2548C72.2218 52.938 71.6661 53.4889 70.977 53.4889Z" fill="#DBAE30"/>
<path d="M70.977 47.2958H18.2944C17.6053 47.2958 17.0496 46.7449 17.0496 46.0616V46.0396C17.0496 45.3564 17.6053 44.8054 18.2944 44.8054H70.977C71.6661 44.8054 72.2218 45.3564 72.2218 46.0396V46.0616C72.2218 46.7449 71.6661 47.2958 70.977 47.2958Z" fill="#DBAE30"/>
<path d="M79.8018 40.4197H76.7342V51.7918H79.8018V40.4197Z" fill="#6C3874"/>
<path d="M83.0473 54.7672H82.9806C81.2245 54.7672 79.8019 53.3567 79.8019 51.6156V40.4638C79.8019 38.7228 81.2245 37.3123 82.9806 37.3123H83.0473C84.8034 37.3123 86.226 38.7228 86.226 40.4638V51.6156C86.226 53.3567 84.8034 54.7672 83.0473 54.7672Z" fill="#8B4795"/>
<path d="M178.298 40.4197L169.118 44.0782H86.226V48.1995H169.118L178.298 51.8579L187.479 47.957V44.3206L178.298 40.4197Z" fill="#969696"/>
<path d="M87.7598 44.0781H86.226V48.1994H87.7598V44.0781Z" fill="#5E5E5E"/>
<path d="M8.91371 41.6758C6.49075 41.6758 4.53461 43.6152 4.53461 46.0175V46.1056C4.53461 48.5079 6.49075 50.4473 8.91371 50.4473H12.0035V41.6978H8.91371V41.6758ZM8.75811 48.1993C7.55774 48.1993 6.57967 47.2296 6.57967 46.0395C6.57967 44.8494 7.55774 43.8797 8.75811 43.8797C9.95847 43.8797 10.9365 44.8494 10.9365 46.0395C10.9365 47.2296 9.95847 48.1993 8.75811 48.1993Z" fill="#6C3874"/>
</svg>
