<svg width="107" height="149" viewBox="0 0 107 149" fill="none" xmlns="http://www.w3.org/2000/svg">
<path d="M106.101 31.7303V143.136C106.101 146.054 103.713 148.441 100.796 148.441H5.30503C2.38726 148.441 0 146.054 0 143.136V31.7303C0 25.8682 4.748 21.1202 10.6101 21.1202H95.4905C101.353 21.1202 106.101 25.8682 106.101 31.7303Z" fill="#8B4795"/>
<path d="M42.4402 21.1202V31.7303C42.4402 33.1892 41.2466 34.3828 39.7877 34.3828H29.1777C27.7188 34.3828 26.5251 33.1892 26.5251 31.7303V21.1202H42.4402Z" fill="#D2D2D2"/>
<path d="M84.8539 21.1202C84.907 21.8099 84.6683 22.5261 84.0847 23.1096L73.5012 33.6136C72.4667 34.6481 70.7956 34.6481 69.7611 33.6136L59.1511 23.1096C58.5675 22.5261 58.3288 21.8099 58.3818 21.1202H84.8539Z" fill="#D2D2D2"/>
<path d="M90.1855 90.0856H106.101V116.611H90.1855V90.0856Z" fill="#FAB400"/>
<path d="M90.1854 148.441H15.915V55.603C15.915 54.1388 17.1033 52.9504 18.5675 52.9504H87.5329C88.9971 52.9504 90.1854 54.1388 90.1854 55.603V148.441Z" fill="#FFE991"/>
<path d="M26.5251 44.9929C27.99 44.9929 29.1776 43.8053 29.1776 42.3404C29.1776 40.8754 27.99 39.6879 26.5251 39.6879C25.0601 39.6879 23.8726 40.8754 23.8726 42.3404C23.8726 43.8053 25.0601 44.9929 26.5251 44.9929Z" fill="#ADADAD"/>
<path d="M37.1352 44.993C38.6002 44.993 39.7878 43.8054 39.7878 42.3405C39.7878 40.8756 38.6002 39.688 37.1352 39.688C35.6703 39.688 34.4827 40.8756 34.4827 42.3405C34.4827 43.8054 35.6703 44.993 37.1352 44.993Z" fill="#ADADAD"/>
<path d="M47.7453 44.993C49.2102 44.993 50.3978 43.8054 50.3978 42.3405C50.3978 40.8756 49.2102 39.688 47.7453 39.688C46.2803 39.688 45.0928 40.8756 45.0928 42.3405C45.0928 43.8054 46.2803 44.993 47.7453 44.993Z" fill="#ADADAD"/>
<path d="M58.3553 44.993C59.8202 44.993 61.0078 43.8054 61.0078 42.3405C61.0078 40.8756 59.8202 39.688 58.3553 39.688C56.8903 39.688 55.7028 40.8756 55.7028 42.3405C55.7028 43.8054 56.8903 44.993 58.3553 44.993Z" fill="#FAB400"/>
<path d="M68.9653 44.993C70.4303 44.993 71.6178 43.8054 71.6178 42.3405C71.6178 40.8756 70.4303 39.688 68.9653 39.688C67.5004 39.688 66.3128 40.8756 66.3128 42.3405C66.3128 43.8054 67.5004 44.993 68.9653 44.993Z" fill="#ADADAD"/>
<path d="M79.5754 44.993C81.0404 44.993 82.2279 43.8054 82.2279 42.3405C82.2279 40.8756 81.0404 39.688 79.5754 39.688C78.1105 39.688 76.9229 40.8756 76.9229 42.3405C76.9229 43.8054 78.1105 44.993 79.5754 44.993Z" fill="#ADADAD"/>
<path d="M51.724 52.9504H54.3765V148.441H51.724V52.9504Z" fill="#8B4795"/>
<path d="M98.1431 100.696C96.6789 100.696 95.4906 99.5076 95.4906 98.0434C95.4906 96.5792 96.6789 95.3909 98.1431 95.3909C99.6073 95.3909 100.796 96.5792 100.796 98.0434C100.796 99.5076 99.6073 100.696 98.1431 100.696Z" fill="#EDEDED"/>
<path d="M98.1431 111.306C96.6789 111.306 95.4906 110.117 95.4906 108.653C95.4906 107.189 96.6789 106.001 98.1431 106.001C99.6073 106.001 100.796 107.189 100.796 108.653C100.796 110.117 99.6073 111.306 98.1431 111.306Z" fill="#8B4795"/>
<path d="M45.0927 15.8153H42.4402V29.0779C42.4402 30.5367 41.2466 31.7304 39.7877 31.7304H29.1776C27.7188 31.7304 26.5251 30.5367 26.5251 29.0779V15.8153H23.8938C21.5251 15.8153 20.3448 12.9479 22.0265 11.2795L32.618 0.770224C33.6524 -0.256299 35.3182 -0.256299 36.3527 0.767572L46.9601 11.2768C48.6418 12.9453 47.4614 15.8153 45.0927 15.8153Z" fill="#FFDF5E"/>
<path d="M61.0131 15.9159H63.6656V2.65337C63.6656 1.19449 64.8592 0.000854492 66.3181 0.000854492H76.9282C78.3871 0.000854492 79.5807 1.19449 79.5807 2.65337V15.9159H82.212C84.5807 15.9159 85.7611 18.7833 84.0794 20.4517L73.4879 30.961C72.4534 31.9875 70.7876 31.9875 69.7531 30.9637L59.1457 20.4544C57.464 18.786 58.6444 15.9159 61.0131 15.9159Z" fill="#9E50AA"/>
</svg>
