<svg width="17" height="25" viewBox="0 0 17 25" fill="none" xmlns="http://www.w3.org/2000/svg">
<path d="M7.26954 17.6093C5.33146 17.4072 3.58399 16.9299 2.08788 15.7597C1.90224 15.6142 1.71058 15.4738 1.54118 15.3112C0.886335 14.6823 0.820353 13.962 1.33852 13.2197C1.7818 12.5845 2.52593 12.4146 3.29938 12.7793C3.44915 12.85 3.59185 12.9382 3.72852 13.033C6.51678 14.9488 10.3471 15.0017 13.1458 13.1192C13.4231 12.9066 13.7195 12.7332 14.063 12.6447C14.731 12.4732 15.3539 12.7186 15.7123 13.303C16.1218 13.9704 16.1166 14.6218 15.612 15.14C14.8381 15.9344 13.9073 16.5091 12.873 16.9102C11.8951 17.2894 10.8239 17.4802 9.76376 17.607C9.92374 17.7811 9.99914 17.8667 10.0992 17.9672C11.5387 19.4136 12.9846 20.8539 14.4194 22.3048C14.9082 22.7991 15.0104 23.412 14.7412 23.987C14.4469 24.6154 13.7881 25.0289 13.1422 24.9846C12.7329 24.9563 12.4138 24.7526 12.1302 24.467C11.0439 23.3738 9.93709 22.3008 8.87274 21.187C8.56299 20.8631 8.41401 20.9244 8.14066 21.2056C7.04777 22.3307 5.93708 23.4385 4.81984 24.54C4.31817 25.0346 3.72119 25.1236 3.1394 24.8411C2.52095 24.5413 2.12742 23.91 2.15779 23.2756C2.17874 22.8465 2.38978 22.5187 2.68434 22.2246C4.10897 20.8021 5.52967 19.3759 6.95089 17.951C7.04489 17.8562 7.1326 17.7557 7.26954 17.6093Z" fill="white"/>
<path d="M8.45017 12.6541C4.99268 12.6423 2.15756 9.77605 2.17772 6.31306C2.19762 2.81184 5.03457 -0.00966292 8.5261 2.48731e-05C12.0247 0.00945083 14.8329 2.87154 14.8153 6.40915C14.7975 9.86508 11.9428 12.6662 8.45017 12.6541ZM11.5924 6.32144C11.5864 4.60199 10.217 3.23313 8.50097 3.23156C6.77052 3.22973 5.38883 4.62346 5.40218 6.35862C5.41501 8.07153 6.79618 9.4307 8.51694 9.42441C10.2325 9.41839 11.5982 8.04063 11.5924 6.32144Z" fill="white"/>
</svg>
