<svg width="268" height="36" viewBox="0 0 268 36" fill="none" xmlns="http://www.w3.org/2000/svg">
<g opacity="0.8">
<path d="M36.6442 31.7667H29.769L34.0926 4.41992H40.9678L36.6442 31.7667Z" fill="#004586"/>
<path d="M23.9568 4.42004L17.3651 23.2118L16.5855 19.1902L14.2465 6.83299C14.2465 6.83299 13.963 4.34692 10.9861 4.34692H0.141756L0 4.85876C0 4.85876 3.33127 5.58996 7.22957 8.0029L13.2542 31.7668H20.4129L31.399 4.42004H23.9568Z" fill="#004586"/>
<path d="M78.178 31.7667H84.4862L78.9577 4.41992H73.4292C70.8776 4.41992 70.2397 6.46727 70.2397 6.46727L60.0332 31.7667H67.1919L68.6095 27.672H77.3983L78.178 31.7667ZM70.594 22.0417L74.2088 11.805L76.2643 22.0417H70.594Z" fill="#004586"/>
<path d="M60.5297 11.0007L61.522 5.15111C61.522 5.15111 58.4743 3.9812 55.2847 3.9812C51.8826 3.9812 43.7316 5.51671 43.7316 13.048C43.7316 20.1406 53.3002 20.2138 53.3002 23.9429C53.3002 27.672 44.7239 27.0139 41.8888 24.674L40.8965 30.8161C40.8965 30.8161 43.9442 32.3516 48.6931 32.3516C53.371 32.3516 60.5297 29.8655 60.5297 22.9923C60.5297 15.8997 50.8903 15.2416 50.8903 12.0975C50.8903 8.88021 57.6237 9.31893 60.5297 11.0007Z" fill="#004586"/>
<path d="M16.5855 19.1171L14.2465 6.83299C14.2465 6.83299 13.963 4.34692 10.9861 4.34692H0.141756L0 4.85876C0 4.85876 5.24498 5.95556 10.2065 10.1965C15.0262 14.145 16.5855 19.1171 16.5855 19.1171Z" fill="#EE9B11"/>
<path d="M224.576 6.97271L218.386 20.5766H217.756V4.00391H208.933V32.0009H216.384C218.349 32.0009 220.128 30.8359 220.943 29.0321L227.134 15.4282H227.764V32.0009H236.549V4.00391H229.098C227.171 4.00391 225.392 5.16888 224.576 6.97271Z" fill="#20AA4D"/>
<path d="M191.585 7.68746L187.916 20.5773H187.286L183.616 7.68746C182.986 5.50783 181.021 4.00464 178.797 4.00464H170.012V32.0016H178.797V15.4665H179.427L184.468 32.0016H190.733L195.774 15.4289H196.404V32.0016H205.19V4.00464H196.404C194.18 4.00464 192.179 5.50783 191.585 7.68746Z" fill="#20AA4D"/>
<path d="M240.367 16.7429V32.0379H249.153V23.0939H258.605C262.72 23.0939 266.167 20.4257 267.464 16.7429H240.367Z" fill="#20AA4D"/>
<path d="M258.568 4.00391H239.107C240.293 10.5052 245.928 15.4658 252.674 15.4658H267.798C267.909 14.8645 267.983 14.2256 267.983 13.5492C267.983 8.28801 263.758 4.00391 258.568 4.00391Z" fill="url(#paint0_linear_2_485)"/>
<path d="M112.774 35.8015V33.4176C112.813 32.623 112.266 31.9476 111.484 31.9078C111.406 31.9078 111.367 31.9078 111.289 31.9078C110.781 31.8681 110.273 32.1462 109.96 32.5833C109.687 32.1462 109.218 31.8681 108.71 31.9078C108.28 31.8681 107.85 32.1065 107.616 32.4641V31.9873H106.834V35.8015H107.655V33.6957C107.577 33.219 107.928 32.7422 108.397 32.7025C108.436 32.7025 108.514 32.7025 108.554 32.7025C109.101 32.7025 109.374 33.06 109.374 33.6957V35.8015H110.195V33.6957C110.117 33.219 110.468 32.7422 110.937 32.7025C110.976 32.7025 111.054 32.7025 111.093 32.7025C111.64 32.7025 111.914 33.06 111.914 33.6957V35.8015H112.774ZM124.926 32.027H123.597V30.8748H122.777V32.027H122.034V32.7819H122.777V34.5301C122.777 35.4042 123.128 35.9207 124.066 35.9207C124.418 35.9207 124.77 35.8015 125.082 35.6425L124.848 34.9274C124.613 35.0466 124.379 35.126 124.144 35.126C123.754 35.126 123.597 34.8877 123.597 34.4904V32.7422H124.926V32.027ZM131.842 31.9078C131.451 31.9078 131.061 32.1065 130.865 32.4641V31.9873H130.045V35.8015H130.865V33.656C130.865 33.0203 131.139 32.6627 131.647 32.6627C131.803 32.6627 131.998 32.7025 132.155 32.7422L132.389 31.9476C132.233 31.9476 132.037 31.9078 131.842 31.9078ZM121.37 32.3052C120.901 32.027 120.393 31.9078 119.846 31.9078C118.908 31.9078 118.283 32.3846 118.283 33.1395C118.283 33.7752 118.752 34.1328 119.573 34.252L119.963 34.2917C120.393 34.3712 120.628 34.4904 120.628 34.689C120.628 34.9671 120.315 35.1658 119.768 35.1658C119.338 35.1658 118.869 35.0466 118.518 34.7685L118.127 35.4042C118.596 35.722 119.182 35.9207 119.729 35.8809C120.823 35.8809 121.448 35.3644 121.448 34.6493C121.448 33.9341 120.94 33.6163 120.159 33.4971L119.768 33.4573C119.416 33.4176 119.143 33.3382 119.143 33.0998C119.143 32.8614 119.416 32.6627 119.846 32.6627C120.276 32.6627 120.667 32.7819 121.018 32.9806L121.37 32.3052ZM143.135 31.9078C142.744 31.9078 142.353 32.1065 142.158 32.4641V31.9873H141.337V35.8015H142.158V33.656C142.158 33.0203 142.431 32.6627 142.939 32.6627C143.096 32.6627 143.291 32.7025 143.447 32.7422L143.682 31.9476C143.525 31.9476 143.33 31.9078 143.135 31.9078ZM132.663 33.8944C132.624 34.9671 133.444 35.8412 134.46 35.8809C134.538 35.8809 134.577 35.8809 134.655 35.8809C135.124 35.9207 135.632 35.7617 135.984 35.4439L135.593 34.7685C135.32 34.9671 134.968 35.0863 134.616 35.126C133.952 35.0863 133.483 34.4903 133.522 33.8149C133.561 33.219 134.03 32.7422 134.616 32.7025C134.968 32.7025 135.32 32.8217 135.593 33.06L135.984 32.3846C135.593 32.0668 135.124 31.9078 134.655 31.9476C133.6 31.8681 132.741 32.7025 132.663 33.7355C132.663 33.7752 132.663 33.8149 132.663 33.8944ZM140.282 33.8944V31.9873H139.462V32.4641C139.188 32.1065 138.758 31.9078 138.289 31.9078C137.195 31.9078 136.336 32.7819 136.336 33.8944C136.336 35.0069 137.195 35.8809 138.289 35.8809C138.758 35.8809 139.188 35.6823 139.462 35.3247V35.8015H140.282V33.8944ZM137.234 33.8944C137.273 33.2587 137.821 32.7819 138.446 32.8217C139.071 32.8614 139.54 33.4176 139.501 34.0533C139.462 34.6493 138.993 35.126 138.368 35.126C137.742 35.126 137.234 34.6493 137.234 34.0136C137.234 33.9738 137.234 33.9341 137.234 33.8944ZM127.427 31.9078C126.333 31.9078 125.473 32.8217 125.512 33.9341C125.551 35.0466 126.411 35.9207 127.505 35.8809C128.052 35.9207 128.638 35.722 129.068 35.3644L128.677 34.7685C128.364 35.0068 127.974 35.1658 127.583 35.1658C127.036 35.2055 126.528 34.8082 126.45 34.252H129.224C129.224 34.1328 129.224 34.0533 129.224 33.9341C129.224 32.7025 128.482 31.9078 127.427 31.9078ZM127.427 32.6627C127.935 32.6627 128.364 33.06 128.364 33.5765H126.411C126.45 33.06 126.919 32.623 127.427 32.6627ZM147.785 33.8944V30.4775H147.003V32.4641C146.73 32.1065 146.3 31.9078 145.831 31.9078C144.737 31.9078 143.877 32.7819 143.877 33.8944C143.877 35.0069 144.737 35.8809 145.831 35.8809C146.3 35.8809 146.73 35.6823 147.003 35.3247V35.8015H147.785V33.8944ZM149.152 35.2452C149.191 35.2452 149.269 35.2452 149.309 35.285C149.348 35.285 149.387 35.3247 149.426 35.3644C149.465 35.4042 149.504 35.4439 149.504 35.4836C149.543 35.5631 149.543 35.6823 149.504 35.7617C149.465 35.8015 149.465 35.8412 149.426 35.8809C149.387 35.9207 149.348 35.9604 149.309 35.9604C149.269 36.0001 149.23 36.0001 149.152 36.0001C148.996 36.0001 148.879 35.9207 148.801 35.7617C148.761 35.6823 148.761 35.5631 148.801 35.4836C148.84 35.4439 148.84 35.4042 148.879 35.3644C148.918 35.3247 148.957 35.285 148.996 35.285C149.074 35.2452 149.113 35.2452 149.152 35.2452ZM149.152 35.9207C149.191 35.9207 149.23 35.9207 149.269 35.8809C149.309 35.8809 149.348 35.8412 149.348 35.8015C149.465 35.6823 149.465 35.5233 149.348 35.4042C149.309 35.3644 149.309 35.3644 149.269 35.3247C149.23 35.3247 149.191 35.285 149.152 35.285C149.113 35.285 149.074 35.285 149.035 35.3247C148.996 35.3247 148.957 35.3644 148.957 35.4042C148.84 35.5233 148.84 35.6823 148.957 35.8015C148.996 35.8412 149.035 35.8412 149.035 35.8809C149.074 35.9207 149.113 35.9207 149.152 35.9207ZM149.191 35.4439C149.23 35.4439 149.269 35.4439 149.309 35.4836C149.348 35.5234 149.348 35.5233 149.348 35.5631C149.348 35.6028 149.348 35.6028 149.309 35.6425C149.269 35.6823 149.269 35.6823 149.23 35.6823L149.348 35.8015H149.269L149.152 35.6823H149.113V35.8015H149.035V35.4439H149.191ZM149.113 35.5234V35.6028H149.191H149.23V35.5631V35.5234H149.191H149.113ZM144.815 33.8944C144.854 33.2587 145.401 32.7819 146.026 32.8217C146.651 32.8614 147.12 33.4176 147.081 34.0533C147.042 34.6493 146.573 35.126 145.948 35.126C145.323 35.126 144.815 34.6493 144.815 34.0136C144.776 33.9738 144.815 33.9341 144.815 33.8944ZM117.345 33.8944V31.9873H116.525V32.4641C116.251 32.1065 115.821 31.9078 115.353 31.9078C114.258 31.9078 113.399 32.7819 113.399 33.8944C113.399 35.0069 114.258 35.8809 115.353 35.8809C115.821 35.8809 116.251 35.6823 116.525 35.3247V35.8015H117.345V33.8944ZM114.337 33.8944C114.376 33.2587 114.923 32.7819 115.548 32.8217C116.173 32.8614 116.642 33.4176 116.603 34.0533C116.564 34.6493 116.095 35.126 115.47 35.126C114.845 35.126 114.337 34.6493 114.337 34.0136C114.337 33.9738 114.337 33.9341 114.337 33.8944Z" fill="#231F20"/>
<path d="M133.405 3.06299H121.096V25.5506H133.405V3.06299Z" fill="#FF5F00"/>
<path d="M121.878 14.3064C121.878 9.93601 123.87 5.76427 127.27 3.06258C121.135 -1.82431 112.304 -0.751578 107.498 5.48616C102.692 11.7239 103.747 20.6633 109.882 25.5502C115 29.6425 122.151 29.6425 127.27 25.5502C123.87 22.8485 121.878 18.7165 121.878 14.3064Z" fill="#EB001B"/>
<path d="M150.012 14.3064C150.012 22.2128 143.721 28.6095 135.945 28.6095C132.78 28.6095 129.732 27.5368 127.27 25.5502C133.366 20.6633 134.421 11.6842 129.615 5.48616C128.911 4.57235 128.13 3.77773 127.231 3.06258C133.327 -1.82431 142.197 -0.751578 147.003 5.48616C148.957 7.9892 150.012 11.0882 150.012 14.3064Z" fill="#F79E1B"/>
<path d="M148.683 23.1673V22.6905H148.878V22.6111H148.41V22.6905H148.605V23.1673H148.683ZM149.582 23.1673V22.6111H149.425L149.269 23.0084L149.113 22.6111H148.996V23.1673H149.113V22.77L149.269 23.1276H149.386L149.543 22.77V23.2071L149.582 23.1673Z" fill="#F79E1B"/>
</g>
<defs>
<linearGradient id="paint0_linear_2_485" x1="239.095" y1="9.73415" x2="267.984" y2="9.73415" gradientUnits="userSpaceOnUse">
<stop stop-color="#00A8E4"/>
<stop offset="0.211" stop-color="#00A3E0"/>
<stop offset="0.555" stop-color="#0094D6"/>
<stop offset="0.9871" stop-color="#007EC6"/>
<stop offset="1" stop-color="#007EC5"/>
</linearGradient>
</defs>
</svg>
