<svg width="280" height="163" viewBox="0 0 280 163" fill="none" xmlns="http://www.w3.org/2000/svg">
<path d="M133.606 107.379L9.22617 125.44V30.9442L133.606 21.7124V107.379Z" fill="#8B4795"/>
<path d="M133.606 107.379L258.026 125.44V30.9442L133.606 21.7124V107.379Z" fill="#8B4795"/>
<path d="M161.74 64.3644L186.872 66.8639V47.7552L161.74 45.9008V64.3644Z" fill="#582A1A"/>
<path d="M164.301 62.7515L184.271 64.7269V49.5286L164.301 48.037V62.7515Z" fill="#15A0C9"/>
<path d="M154.977 162.73L9.22637 125.44L133.606 107.379L258.026 125.44L154.977 162.73Z" fill="#FFB238"/>
<path d="M145.372 145.435L65.2533 124.956L133.606 114.998L201.999 124.956L145.372 145.435Z" fill="#B85656"/>
<path d="M98.7895 79.5228L58.7702 84.9651V39.0881L98.7895 35.5808V79.5228Z" fill="#F2F2F2"/>
<path d="M96.4282 77.2652L61.0912 82.0625V41.5876L96.4282 38.4834V77.2652Z" fill="#4DBFD9"/>
<path d="M98.7894 52.1499L81.1809 54.4478V39.2495H78.7797V80.3292H81.1809V57.2698L98.7894 54.8106V52.1499Z" fill="#F2F2F2"/>
<path d="M269.552 93.0273H175.386V158.698H269.552V93.0273Z" fill="white"/>
<path d="M260.547 99.6389H184.431V152.732H260.547V99.6389Z" fill="#ADADAD"/>
<path d="M187.712 111.612H184.431V140.073H187.712V111.612Z" fill="#363636"/>
<path d="M217.207 99.6389H202.68V101.09H217.207V99.6389Z" fill="#363636"/>
<path d="M244.42 111.612H206.882V141.404H244.42V111.612Z" fill="#363636"/>
<path opacity="0.2" d="M280 144L0 0H280V144Z" fill="white"/>
<path d="M54.6477 109.556L50.6458 92.5441L33.7977 88.5127L67.3339 75.7333L54.6477 109.556Z" fill="#0D0D0D"/>
</svg>
