<svg width="187" height="121" viewBox="0 0 187 121" fill="none" xmlns="http://www.w3.org/2000/svg">
<path d="M11.9758 65.8594H82.9285V87.3201H11.9758V65.8594Z" fill="#FFDF5E"/>
<path d="M11.9757 65.8594H17.9879V87.3201H11.9757V65.8594Z" fill="#BFA747"/>
<path d="M3.14271 65.8594H11.9758V87.3201H3.14271V65.8594Z" fill="#A1A1A1"/>
<path d="M7.56954 65.8594H11.9758V87.3201H7.56954V65.8594Z" fill="#616161"/>
<path d="M0.630963 61.6123H3.39001V91.4439H0.630963V61.6123Z" fill="#3B3B3B"/>
<path d="M80.8488 65.8594H81.3636V75.1536H80.8488V65.8594Z" fill="#1C1C1C"/>
<path d="M78.7691 65.8594H79.2838V84.4477H78.7691V65.8594Z" fill="#1C1C1C"/>
<path d="M76.7103 65.8594H77.225V75.1536H76.7103V65.8594Z" fill="#1C1C1C"/>
<path d="M74.6305 65.8594H75.1453V75.1536H74.6305V65.8594Z" fill="#1C1C1C"/>
<path d="M72.5513 65.8594H73.066V75.1536H72.5513V65.8594Z" fill="#1C1C1C"/>
<path d="M70.4716 65.8594H70.9864V75.1536H70.4716V65.8594Z" fill="#1C1C1C"/>
<path d="M68.3917 65.8594H68.9065V84.4477H68.3917V65.8594Z" fill="#1C1C1C"/>
<path d="M66.3125 65.8594H66.8273V75.1536H66.3125V65.8594Z" fill="#1C1C1C"/>
<path d="M64.2328 65.8594H64.7476V75.1536H64.2328V65.8594Z" fill="#1C1C1C"/>
<path d="M62.174 65.8594H62.6887V75.1536H62.174V65.8594Z" fill="#1C1C1C"/>
<path d="M60.0941 65.8594H60.6088V75.1536H60.0941V65.8594Z" fill="#1C1C1C"/>
<path d="M58.0144 65.8594H58.5291V84.4477H58.0144V65.8594Z" fill="#1C1C1C"/>
<path d="M55.9351 65.8594H56.4499V75.1536H55.9351V65.8594Z" fill="#1C1C1C"/>
<path d="M53.8555 65.8594H54.3702V75.1536H53.8555V65.8594Z" fill="#1C1C1C"/>
<path d="M51.776 65.8594H52.2908V75.1536H51.776V65.8594Z" fill="#1C1C1C"/>
<path d="M49.6964 65.8594H50.2111V75.1536H49.6964V65.8594Z" fill="#1C1C1C"/>
<path d="M47.6167 65.8594H48.1315V84.4477H47.6167V65.8594Z" fill="#1C1C1C"/>
<path d="M45.5578 65.8594H46.0726V75.1536H45.5578V65.8594Z" fill="#1C1C1C"/>
<path d="M43.4781 65.8594H43.9929V75.1536H43.4781V65.8594Z" fill="#1C1C1C"/>
<path d="M41.3989 65.8594H41.9136V75.1536H41.3989V65.8594Z" fill="#1C1C1C"/>
<path d="M39.319 65.8594H39.8337V75.1536H39.319V65.8594Z" fill="#1C1C1C"/>
<path d="M37.2393 65.8594H37.7541V84.4477H37.2393V65.8594Z" fill="#1C1C1C"/>
<path d="M35.1601 65.8594H35.6749V75.1536H35.1601V65.8594Z" fill="#1C1C1C"/>
<path d="M33.0802 65.8594H33.595V75.1536H33.0802V65.8594Z" fill="#1C1C1C"/>
<path d="M31.0216 65.8594H31.5363V75.1536H31.0216V65.8594Z" fill="#1C1C1C"/>
<path d="M28.9417 65.8594H29.4564V75.1536H28.9417V65.8594Z" fill="#1C1C1C"/>
<path d="M26.862 65.8594H27.3768V84.4477H26.862V65.8594Z" fill="#1C1C1C"/>
<path d="M24.7827 65.8594H25.2975V75.1536H24.7827V65.8594Z" fill="#1C1C1C"/>
<path d="M22.7029 65.8594H23.2177V75.1536H22.7029V65.8594Z" fill="#1C1C1C"/>
<path d="M20.6236 65.8594H21.1384V75.1536H20.6236V65.8594Z" fill="#1C1C1C"/>
<path d="M18.544 65.8594H19.0587V75.1536H18.544V65.8594Z" fill="#1C1C1C"/>
<path d="M16.4643 65.8594H16.9791V84.4477H16.4643V65.8594Z" fill="#1C1C1C"/>
<path d="M77.5339 86.7456L84.5345 40.9518C84.5551 40.8492 84.5757 40.7466 84.5757 40.644L84.6375 40.2953C88.4054 17.4394 108.295 0 132.262 0C158.926 0 180.545 21.5428 180.545 48.0917V83.0526C180.545 90.3155 174.636 96.2039 167.347 96.2039H84.8022C79.84 96.2039 76.2368 91.5055 77.5339 86.7456Z" fill="#804389"/>
<path d="M89.4147 75.1535L100.698 55.4367C100.142 53.0773 99.8332 50.6357 99.8332 48.1122C99.8332 30.2624 114.349 15.7775 132.283 15.7775C150.196 15.7775 164.732 30.2419 164.732 48.1122C164.732 65.9824 150.196 80.4263 132.262 80.4263C128.391 80.4263 124.706 79.7082 121.247 78.4772L100.595 87.5252C97.3624 88.9409 93.4091 87.8535 90.8972 85.1042L90.8148 85.0016C88.3234 82.2523 87.6645 78.19 89.4147 75.1535Z" fill="#BFA747"/>
<path d="M94.1089 72.2607L104.424 54.2468C103.992 52.2772 103.745 50.2255 103.745 48.1123C103.745 32.4168 116.511 19.6758 132.283 19.6758C148.034 19.6758 160.82 32.3963 160.82 48.1123C160.82 63.8077 148.054 76.5487 132.283 76.5487C129.091 76.5487 126.044 76.0153 123.202 75.051L104.177 83.3809C101.274 84.6529 97.7121 83.6886 95.4884 81.2061L95.406 81.124C93.1411 78.6209 92.544 74.9894 94.1089 72.2607Z" fill="#FFDF5E"/>
<path d="M114.817 52.5606C112.483 42.9574 118.403 33.287 128.04 30.961C137.677 28.6351 147.382 34.5344 149.717 44.1376C152.051 53.7407 146.13 63.4112 136.493 65.7371C126.856 68.0631 117.151 62.1637 114.817 52.5606Z" fill="#FFE991"/>
<path d="M131.377 12.0641H133.148C136.03 12.0641 138.357 9.74572 138.357 6.87334V1.53894H126.147V6.85283C126.168 9.7252 128.494 12.0641 131.377 12.0641Z" fill="#FFDF5E"/>
<path d="M157.238 22.1172L158.494 23.3688C160.532 25.3999 163.826 25.3999 165.865 23.3688L169.653 19.6142L161.026 11.0176L157.258 14.7722C155.199 16.8034 155.199 20.0861 157.238 22.1172Z" fill="#FFDF5E"/>
<path d="M168.397 47.4763V49.2408C168.397 52.1131 170.724 54.4316 173.606 54.4316H178.939V42.265H173.606C170.724 42.265 168.376 44.6039 168.397 47.4763Z" fill="#FFDF5E"/>
<path d="M106.545 23.4098L107.801 22.1583C109.84 20.1271 109.84 16.8444 107.801 14.8132L104.033 11.0586L95.4061 19.6552L99.1741 23.4098C101.212 25.441 104.527 25.441 106.545 23.4098Z" fill="#FFDF5E"/>
<path d="M120.793 50.4511C121.267 50.7384 122.42 51.2103 123.594 51.2103C125.385 51.2103 126.106 50.2049 126.085 49.2406C126.085 47.7839 124.726 47.1684 123.305 47.1684H122.214V45.4655H123.264C124.355 45.4655 125.714 44.9731 125.714 43.7421C125.714 42.9009 125.097 42.2033 123.738 42.2033C122.729 42.2033 121.72 42.6342 121.205 42.983L120.67 41.3006C121.37 40.8082 122.729 40.3568 124.211 40.3568C126.764 40.3568 128.062 41.752 128.062 43.3728C128.062 44.6654 127.3 45.7117 125.776 46.2452V46.2862C127.279 46.5529 128.494 47.6814 128.494 49.3432C128.494 51.4154 126.744 53.0773 123.697 53.0773C122.193 53.0773 120.917 52.667 120.237 52.2156L120.793 50.4511Z" fill="black"/>
<path d="M130.924 46.3885C130.924 45.3217 130.903 44.4394 130.841 43.6393H132.859L132.962 44.9934H133.024C133.477 44.2753 134.321 43.4136 135.865 43.4136C137.08 43.4136 138.027 44.0906 138.418 45.1165H138.46C138.789 44.6036 139.16 44.2343 139.592 43.9675C140.107 43.5982 140.683 43.4136 141.445 43.4136C142.989 43.4136 144.534 44.4599 144.534 47.3939V52.8308H142.248V47.7426C142.248 46.2039 141.713 45.3011 140.601 45.3011C139.798 45.3011 139.221 45.8756 138.974 46.5321C138.913 46.7578 138.851 47.0451 138.851 47.3118V52.8308H136.565V47.4964C136.565 46.2039 136.051 45.3011 134.98 45.3011C134.115 45.3011 133.518 45.9782 133.312 46.6347C133.209 46.8604 133.189 47.1271 133.189 47.3939V52.8308H130.903V46.3885H130.924Z" fill="black"/>
<path d="M184.684 89.3512C187.772 92.4287 187.772 97.4143 184.684 100.492L184.581 100.594C181.492 103.672 176.489 103.672 173.401 100.594L168.768 95.9781L180.031 84.7349L184.684 89.3512ZM176.736 97.8657C178.177 99.3019 180.504 99.3019 181.925 97.8657C183.366 96.4295 183.366 94.1111 181.925 92.6954C180.484 91.2593 178.157 91.2593 176.736 92.6954C175.315 94.1111 175.315 96.4295 176.736 97.8657Z" fill="#2E2E2E"/>
<path d="M78.7285 59.1093L81.714 59.5607L84.7202 39.9055L81.7346 39.4541C81.2199 42.8394 78.9138 45.3219 76.6077 44.9526L75.4753 52.3182C77.802 52.6875 79.2638 55.724 78.7285 59.1093Z" fill="#5D3463"/>
<path d="M165 89.2692C160.77 89.2692 157.34 85.8521 157.34 81.6369C157.34 77.4217 160.77 74.0046 165 74.0046C169.23 74.0046 172.659 77.4217 172.659 81.6369C172.659 85.8521 169.23 89.2692 165 89.2692Z" fill="#0A0A0A"/>
<path d="M159.338 81.637C159.338 84.7556 161.87 87.2792 165 87.2792C168.13 87.2792 170.662 84.7556 170.662 81.637C170.662 78.5185 168.13 75.9949 165 75.9949C161.87 75.9949 159.338 78.5185 159.338 81.637Z" fill="#FFDF5E"/>
<path d="M172.186 105.211L176.386 107.119L182.419 96.491L176.283 93.7007L172.186 105.211Z" fill="#804389"/>
<path d="M172.173 105.195L176.388 107.111L173.141 114.204L168.926 112.288L172.173 105.195Z" fill="#808080"/>
<path d="M168.933 112.33C168.933 112.33 132.942 103.713 111.199 112.022L111.816 118.013C126.579 111.202 173.133 114.197 173.133 114.197L168.933 112.33Z" fill="#4C2752"/>
<path d="M173.133 114.218C173.133 114.218 135.742 125.584 111.816 118.034L111.199 112.043C126.312 116.926 168.933 112.31 168.933 112.31L173.133 114.218Z" fill="#804389"/>
</svg>
